<svg width="127" height="127" viewBox="0 0 127 127" fill="none" xmlns="http://www.w3.org/2000/svg">
<circle cx="63.5" cy="63.5" r="63.5" fill="#EAF2FF"/>
<path d="M76.0844 34.7462L77.4735 32C78.4058 32.4771 79.3147 32.9973 80.1987 33.5584L80.1994 33.5572C84.5741 36.3254 88.3416 40.1147 91.0948 44.5156L91.0936 44.5163C91.6511 45.405 92.1687 46.32 92.6428 47.2573L89.9126 48.6548C86.9052 42.7099 81.994 37.7705 76.0844 34.7462ZM33.7304 77.3454L31 78.7425C31.4743 79.6802 31.9915 80.5944 32.5494 81.4835L32.5484 81.4844C35.3005 85.8844 39.0682 89.6737 43.4438 92.4428L43.4445 92.4416C44.3281 93.0022 45.2378 93.5228 46.1697 94L47.559 91.2538C41.6483 88.2287 36.7373 83.2891 33.7304 77.3454ZM105 83.635L104.034 86.559C94.229 83.2816 94.1099 75.5359 94.0047 68.7021C93.9193 63.1471 93.844 58.2284 89.2881 55.2782C89.9739 57.7609 90.3281 60.3529 90.3281 63.0001C90.3281 70.6584 87.3629 77.8587 81.9786 83.274C76.4212 88.8634 69.1212 91.6582 61.8214 91.6582C58.7345 91.6582 55.6473 91.1583 52.6921 90.1588C52.6009 90.1326 52.5102 90.1044 52.4205 90.0741L52.423 90.0662C48.4954 88.6934 44.807 86.432 41.6736 83.2836C41.6702 83.2802 41.6672 83.2771 41.6639 83.2738C41.6605 83.2704 41.6575 83.2673 41.6542 83.2641C36.2764 77.8502 33.3146 70.6538 33.3146 63.0001C33.3146 55.3416 36.2798 48.1414 41.6643 42.7261C47.0484 37.3107 54.2071 34.3283 61.8216 34.3283C69.4361 34.3283 76.5946 37.3107 81.9787 42.7261C84.4339 45.1955 86.3861 48.0362 87.7836 51.1219C96.8501 54.496 96.9657 62.0083 97.0679 68.6545C97.1702 75.3043 97.2586 81.0474 105 83.635ZM36.9749 60.7594C39.1884 56.4718 42.5588 51.9924 46.7218 47.8052C51.3445 43.1558 56.2872 39.5457 60.7022 37.4334C54.3259 37.709 48.3713 40.3374 43.8303 44.9047C39.2769 49.4843 36.6617 55.4939 36.3998 61.9268C36.5899 61.5215 36.7831 61.1309 36.9749 60.7594ZM41.765 70.7386C44.0612 65.5581 48.2028 59.8114 53.4271 54.5571C58.6513 49.3027 64.3649 45.1371 69.5154 42.8277C71.4989 41.9384 73.3355 41.3591 74.9878 41.0907C73.1501 39.9689 71.1829 39.0911 69.1277 38.4749C65.3227 37.9024 57.1533 41.671 48.8878 49.9843C40.1898 58.7329 36.5799 67.2666 37.5991 70.8543L37.5932 70.856C38.1948 72.7398 39.0141 74.5462 40.0379 76.2428C40.3048 74.5804 40.8807 72.7338 41.765 70.7386ZM48.734 81.7648C49.9935 75.9147 54.9531 68.3582 61.051 62.225C67.1475 56.0932 74.6604 51.1067 80.4775 49.841C80.9486 47.5766 80.7348 45.8323 79.8127 44.9049C79.206 44.2946 78.2473 43.9928 77.0213 43.9928C75.3578 43.9928 73.2019 44.5481 70.7629 45.6418C65.9463 47.8015 60.5589 51.7414 55.5933 56.7359C50.6277 61.7303 46.7104 67.1487 44.5631 71.9933C42.6744 76.2545 42.4004 79.6571 43.8305 81.0955C44.7519 82.022 46.4846 82.2369 48.734 81.7648ZM77.2248 54.195C72.7828 56.1967 67.6771 59.9179 63.217 64.4039C58.7558 68.8907 55.055 74.0256 53.0633 78.4917C52.7287 79.242 52.4467 79.962 52.2178 80.6451C52.4361 80.5542 52.657 80.4585 52.8801 80.3584C57.6967 78.1987 63.0841 74.2588 68.0497 69.2642C73.0153 64.2699 76.9326 58.8515 79.0801 54.0069C79.1786 53.7845 79.2729 53.5642 79.3627 53.3469C78.6844 53.5764 77.9694 53.8595 77.2248 54.195ZM74.3964 75.6478C78.3644 71.6569 81.6948 67.2555 83.7741 63.2545C85.6872 59.573 86.4437 56.4056 85.8494 54.5643L85.856 54.562C85.6996 54.1105 85.5306 53.6635 85.3492 53.2217C84.7891 52.7803 83.9521 52.581 82.8998 52.6142C82.6241 53.4631 82.2834 54.3467 81.878 55.2616C79.5818 60.4421 75.44 66.1886 70.2159 71.4429C64.9917 76.6973 59.2781 80.8629 54.1276 83.1723C53.2161 83.5811 52.3352 83.9245 51.4895 84.2021C51.4557 85.2451 51.6493 86.0768 52.076 86.6391C52.5752 86.8464 53.0798 87.0375 53.5888 87.2115C57.2328 88.1951 65.8905 84.203 74.3964 75.6478ZM87.2647 63.0893C87.0118 63.647 86.7495 64.1807 86.4891 64.6815C84.2698 68.9522 80.7447 73.6206 76.5626 77.8267C72.3686 82.045 67.7114 85.5969 63.4484 87.8281C62.9673 88.0801 62.4557 88.3336 61.922 88.5787C68.404 88.5532 74.8779 86.0589 79.8127 81.0955C84.5974 76.2829 87.2419 69.8916 87.2647 63.0893Z" fill="#275EAF"/>
</svg>
