<svg width="23" height="23" viewBox="0 0 23 23" fill="none" xmlns="http://www.w3.org/2000/svg">
<path d="M22.647 11.2971C22.647 13.4409 22.0112 15.5365 20.8202 17.319C19.6292 19.1015 17.9364 20.4907 15.9558 21.3111C13.9752 22.1315 11.7958 22.3462 9.69325 21.9279C7.59067 21.5097 5.65933 20.4774 4.14345 18.9615C2.62758 17.4456 1.59525 15.5143 1.17703 13.4117C0.758796 11.3091 0.973446 9.12975 1.79383 7.14916C2.61422 5.16858 4.00349 3.47574 5.78597 2.28473C7.56845 1.09371 9.66408 0.458008 11.8079 0.458008C13.2313 0.457828 14.6409 0.738067 15.956 1.28272C17.2712 1.82737 18.4661 2.62577 19.4727 3.63231C20.4792 4.63884 21.2776 5.83381 21.8222 7.14895C22.3669 8.46409 22.6471 9.87365 22.647 11.2971ZM17.0268 5.13893C16.9035 5.06754 16.7674 5.02117 16.6261 5.00248C16.4849 4.9838 16.3414 4.99317 16.2038 5.03005C16.0662 5.06693 15.9372 5.13061 15.8242 5.21742C15.7112 5.30424 15.6165 5.41249 15.5455 5.53597L10.3046 14.613L7.93196 11.7653C7.8408 11.656 7.72901 11.5657 7.60296 11.4996C7.47691 11.4335 7.33908 11.3929 7.19732 11.38C7.05557 11.3672 6.91268 11.3824 6.7768 11.4248C6.64093 11.4672 6.51473 11.5359 6.40542 11.6271C6.2961 11.7182 6.20582 11.83 6.13971 11.9561C6.0736 12.0821 6.03296 12.2199 6.02012 12.3617C5.99419 12.648 6.08305 12.9328 6.26714 13.1536L9.63374 17.1952C9.73543 17.3172 9.8627 17.4154 10.0065 17.4828C10.1504 17.5503 10.3073 17.5853 10.4661 17.5853C10.4972 17.5852 10.5283 17.5839 10.5592 17.5812C10.7332 17.5664 10.901 17.5097 11.0483 17.416C11.1956 17.3223 11.3181 17.1944 11.4053 17.0432L17.4211 6.61892C17.4923 6.49569 17.5385 6.35964 17.5571 6.21855C17.5756 6.07746 17.5662 5.93409 17.5294 5.79664C17.4925 5.65919 17.4289 5.53035 17.3422 5.4175C17.2555 5.30465 17.1474 5.20999 17.0241 5.13893H17.0268Z" fill="#3CA767"/>
</svg>
