<svg width="127" height="127" viewBox="0 0 127 127" fill="none" xmlns="http://www.w3.org/2000/svg">
<circle cx="63.5" cy="63.5" r="63.5" fill="#FFEFE6"/>
<path d="M63.2914 73.9802C59.1567 73.9802 55.793 77.1116 55.793 80.9605C55.793 82.7883 56.8701 83.8795 58.6742 83.8795C59.5027 83.8795 60.4119 83.6689 61.2911 83.4653C62.0188 83.2968 62.7711 83.1224 63.2914 83.1224C63.7444 83.1224 64.4592 83.2891 65.1503 83.4502C66.0556 83.6613 66.9918 83.8795 67.8553 83.8795C69.6928 83.8794 70.79 82.7883 70.79 80.9605C70.7899 77.1116 67.4261 73.9802 63.2914 73.9802ZM68.3217 81.4091C68.3207 81.4098 68.2192 81.4826 67.855 81.4826C67.2673 81.4826 66.4677 81.2962 65.6945 81.1158C64.8335 80.9149 64.02 80.7253 63.2914 80.7253C62.4972 80.7253 61.6091 80.931 60.7503 81.1299C60.0023 81.3034 59.2287 81.4824 58.6742 81.4824C58.3664 81.4824 58.2651 81.4219 58.2635 81.4276C58.2582 81.4193 58.1898 81.3066 58.1898 80.9601C58.1898 78.4327 60.4783 76.3766 63.2914 76.3766C66.1045 76.3766 68.3931 78.4327 68.3931 80.9601C68.3931 81.2544 68.3385 81.388 68.3217 81.4091Z" fill="#AE5219"/>
<path d="M59.5596 71.6914C59.5596 69.5817 58.0963 67.8655 56.2975 67.8655C54.4986 67.8655 53.0352 69.5817 53.0352 71.6914C53.0352 73.801 54.4986 75.5173 56.2975 75.5173C58.0963 75.5171 59.5596 73.8009 59.5596 71.6914ZM55.4321 71.6914C55.4321 70.8735 55.8891 70.2623 56.2977 70.2623C56.7061 70.2623 57.1629 70.8735 57.1629 71.6914C57.1629 72.5092 56.7061 73.1204 56.2977 73.1204C55.8889 73.1203 55.4321 72.5091 55.4321 71.6914Z" fill="#AE5219"/>
<path d="M63.5082 73.1513C65.3069 73.1513 66.7704 71.435 66.7704 69.3254C66.7704 67.2158 65.3069 65.4995 63.5082 65.4995C61.7094 65.4995 60.2461 67.2158 60.2461 69.3254C60.2461 71.435 61.7094 73.1513 63.5082 73.1513ZM63.5082 67.8965C63.9168 67.8965 64.3736 68.5077 64.3736 69.3255C64.3736 70.1434 63.9168 70.7546 63.5082 70.7546C63.0997 70.7546 62.6429 70.1434 62.6429 69.3255C62.6429 68.5077 63.0997 67.8965 63.5082 67.8965Z" fill="#AE5219"/>
<path d="M70.7155 67.8655C68.9166 67.8655 67.4531 69.5817 67.4531 71.6914C67.4531 73.801 68.9166 75.5173 70.7155 75.5173C72.5144 75.5173 73.9778 73.801 73.9778 71.6914C73.9778 69.5817 72.5144 67.8655 70.7155 67.8655ZM70.7155 73.1203C70.307 73.1203 69.8499 72.5091 69.8499 71.6912C69.8499 70.8733 70.3069 70.2622 70.7155 70.2622C71.1239 70.2622 71.581 70.8733 71.581 71.6912C71.581 72.5091 71.1239 73.1203 70.7155 73.1203Z" fill="#AE5219"/>
<path d="M96.9245 51.8361L66.0527 28.7496C65.397 28.2594 64.6157 28.0001 63.7935 28.0001L63.7778 28.0003C63.7704 28.0001 63.7635 28 63.7578 28L63.7334 28.0004C63.7244 28.0001 63.7157 28.0003 63.7068 28.0003L63.68 28C63.6744 28 63.6675 28.0001 63.6601 28.0003L63.6445 28.0001C62.8222 28.0001 62.041 28.2594 61.3853 28.7496L30.5136 51.8362C28.846 53.0833 28.5036 55.4549 29.7505 57.1231L32.3371 60.5818C33.0467 61.5307 34.1781 62.0969 35.3638 62.0969C35.966 62.0969 36.5469 61.9555 37.0739 61.6862V94.2229C37.0739 96.3056 38.7684 98 40.8511 98H86.587C88.6697 98 90.3642 96.3056 90.3642 94.2229V61.686C90.8912 61.9555 91.472 62.097 92.0743 62.097H92.0744C93.26 62.097 94.3916 61.5304 95.1009 60.5818L97.6876 57.1228C98.9344 55.4549 98.5921 53.0833 96.9245 51.8361ZM86.587 95.6032H40.8511C40.0899 95.6032 39.4707 94.984 39.4707 94.2229V59.9634L63.7192 41.8304L87.9674 59.9633V94.2229C87.9674 94.9841 87.348 95.6032 86.587 95.6032ZM95.7681 55.6875L93.1813 59.1464C92.9183 59.4983 92.5147 59.7002 92.0741 59.7002C91.7754 59.7002 91.4902 59.605 91.2495 59.425L64.4368 39.374C64.2241 39.215 63.9716 39.1355 63.7192 39.1355C63.4668 39.1355 63.2143 39.215 63.0016 39.374L36.1885 59.4251C35.9478 59.605 35.6626 59.7001 35.3638 59.7001C34.9234 59.7001 34.5197 59.4982 34.2565 59.1463L31.67 55.6878C31.2144 55.0782 31.3394 54.2114 31.9489 53.7557L62.8207 30.6694C63.0588 30.4911 63.3436 30.3971 63.6573 30.3971C63.6573 30.3971 63.6574 30.3971 63.6577 30.3971C63.6669 30.3971 63.6759 30.3972 63.6851 30.397L63.7095 30.3972C63.7164 30.3974 63.7236 30.3974 63.7288 30.3972L63.756 30.397C63.7695 30.397 63.7832 30.3971 63.7935 30.397C64.0942 30.397 64.3792 30.4911 64.6173 30.6694L95.4891 53.7555C96.0986 54.2114 96.2235 55.0782 95.7681 55.6875Z" fill="#AE5219"/>
<path d="M72.5922 57.3745C69.1938 57.3745 66.0328 58.7328 63.7193 61.1454C61.4058 58.7328 58.2446 57.3745 54.8464 57.3745C48.0537 57.3745 42.5273 62.9007 42.5273 69.6936C42.5273 72.8616 43.6529 76.0528 45.8726 79.179C47.6 81.6116 49.9953 84.0138 52.9919 86.3189C58.0434 90.2046 63.0185 92.4606 63.2278 92.5546C63.3839 92.6248 63.5516 92.6601 63.7193 92.6601C63.8669 92.6601 64.015 92.6329 64.1553 92.578C64.3653 92.496 69.3605 90.5248 74.4287 86.7762C77.4361 84.5519 79.8396 82.1605 81.5727 79.6685C83.7881 76.4832 84.9113 73.1273 84.9113 69.6936C84.9113 62.9007 79.3851 57.3745 72.5922 57.3745ZM63.7502 90.1503C60.8178 88.7262 44.9242 80.5048 44.9242 69.6936C44.9242 64.2224 49.3752 59.7713 54.8464 59.7713C57.9825 59.7713 60.8681 61.2079 62.7637 63.7128C62.9901 64.0122 63.3439 64.1881 63.7193 64.1881C64.0948 64.1881 64.4484 64.0122 64.675 63.7128C66.5704 61.2079 69.4562 59.7713 72.5922 59.7713C78.0635 59.7713 82.5145 64.2224 82.5145 69.6936C82.5145 81.5178 66.6959 88.8823 63.7502 90.1503Z" fill="#AE5219"/>
</svg>
