<svg width="90" height="90" viewBox="0 0 90 90" fill="none" xmlns="http://www.w3.org/2000/svg">
<circle cx="44.9545" cy="45.2442" r="44.4053" fill="#DA7339"/>
<path d="M54.7651 31.1344C64.9924 18.4641 49.293 20.1937 47.0144 19.0477C46.2137 18.6455 45.426 14.7631 43.6442 15.6596C40.9003 17.0392 41.1334 24.2205 40.8357 26.6162C40.6741 27.9201 38.8626 29.7871 38.2672 31.1344C37.3168 33.2842 36.2725 35.8414 34.5267 38.5119C32.781 41.1826 29.1327 43.253 27.3065 45.2939C19.5347 53.9758 22.8668 64.1822 31.3995 70.7824C40.0297 77.4579 76.0749 74.9664 65.8869 59.5998" stroke="#EFEFEF" stroke-opacity="0.9" stroke-width="1.67831" stroke-linecap="round" stroke-linejoin="round"/>
<path d="M50.7552 37.2024C53.6224 46.5249 49.5065 56.2606 49.5065 65.3891C49.5065 66.4396 51.8533 65.4259 53.003 65.6136" stroke="#EFEFEF" stroke-opacity="0.9" stroke-width="1.67831" stroke-linecap="round" stroke-linejoin="round"/>
<path d="M37.6149 46.9933C39.5563 47.2916 41.3281 48.779 42.7023 50.1694C49.5425 57.0912 40.8043 61.7429 40.3203 64.1898C40.2111 64.7433 42.466 65.1243 42.9189 65.175" stroke="#EFEFEF" stroke-opacity="0.9" stroke-width="1.67831" stroke-linecap="round" stroke-linejoin="round"/>
<path d="M46.0024 46.7086C47.5312 45.3181 47.8229 47.7519 48.1003 49.0902" stroke="#EFEFEF" stroke-opacity="0.9" stroke-width="1.67831" stroke-linecap="round" stroke-linejoin="round"/>
</svg>
