<svg width="90" height="90" viewBox="0 0 90 90" fill="none" xmlns="http://www.w3.org/2000/svg">
<circle cx="44.8604" cy="44.796" r="44.4053" fill="#3CA767"/>
<path d="M68.3061 36.1919L62.6416 19.7323V15.925C62.6416 15.6595 62.5173 15.4093 62.3058 15.2487C62.0944 15.0882 61.8201 15.0358 61.5641 15.1075L57.8389 16.1494L54.1013 15.1074C53.9523 15.0658 53.7944 15.0658 53.6454 15.1074L49.9074 16.1495L46.1694 15.1074C46.0204 15.0658 45.8626 15.0658 45.7136 15.1074L41.9756 16.1495L38.2377 15.1074C38.0887 15.0658 37.9308 15.0658 37.7818 15.1074L34.0437 16.1495L30.4126 15.1373C30.3148 15.0979 30.2079 15.0762 30.096 15.0762H30.0775C29.6531 15.0762 29.2939 15.3896 29.2364 15.8099C29.2227 15.9095 29.2272 16.0078 29.247 16.1013V19.7337L23.5833 36.1919C23.5528 36.2807 23.5371 36.3741 23.5371 36.4681V53.3989C23.5371 53.8678 23.9171 54.2477 24.386 54.2477C24.8548 54.2477 25.2348 53.8678 25.2348 53.3989V36.6101L30.702 20.7231H54.691C55.1598 20.7231 55.5398 20.3432 55.5398 19.8743C55.5398 19.4053 55.1598 19.0254 54.691 19.0254H30.9449V17.0481L33.8157 17.8483C33.9647 17.8899 34.1225 17.8899 34.2715 17.8483L38.0095 16.8063L41.7474 17.8483C41.8964 17.8899 42.0543 17.8899 42.2033 17.8483L45.9412 16.8063L49.6792 17.8483C49.8282 17.8899 49.986 17.8899 50.1351 17.8483L53.8731 16.8063L57.611 17.8483C57.7605 17.8899 57.9183 17.8899 58.0677 17.8481L60.9436 17.0438V19.0253H57.4731C57.0043 19.0253 56.6243 19.4052 56.6243 19.8741C56.6243 20.3431 57.0043 20.723 57.4731 20.723H60.6026L55.2792 36.1919C55.2487 36.2807 55.2331 36.3741 55.2331 36.4681V68.6228H25.2348V56.1812C25.2348 55.7122 24.8548 55.3323 24.386 55.3323C23.9171 55.3323 23.5371 55.7122 23.5371 56.1812V69.4716C23.5371 69.9405 23.9171 70.3204 24.386 70.3204H56.0823C56.11 70.3204 56.1377 70.3189 56.1653 70.3162C56.1787 70.3149 56.1916 70.3125 56.2048 70.3106C56.2186 70.3086 56.2325 70.307 56.2463 70.3043C56.2625 70.3011 56.2784 70.2968 56.2942 70.2927C56.3048 70.29 56.3153 70.2877 56.3258 70.2845C56.3426 70.2795 56.359 70.2734 56.3754 70.2674C56.383 70.2645 56.3909 70.2624 56.3985 70.2594L56.4115 70.2542C56.4121 70.254 56.4127 70.2538 56.4135 70.2534L67.8198 65.6764C68.1417 65.5471 68.3525 65.2352 68.3525 64.8885V36.468C68.3523 36.3741 68.3366 36.2807 68.3061 36.1919ZM66.6545 64.3144L56.9311 68.2162V36.6101L61.7927 22.4828L66.6544 36.61V64.3144H66.6545Z" fill="#EFEFEF"/>
<path d="M68.3061 36.1919L62.6416 19.7323V15.925C62.6416 15.6595 62.5173 15.4093 62.3058 15.2487C62.0944 15.0882 61.8201 15.0358 61.5641 15.1075L57.8389 16.1494L54.1013 15.1074C53.9523 15.0658 53.7944 15.0658 53.6454 15.1074L49.9074 16.1495L46.1694 15.1074C46.0204 15.0658 45.8626 15.0658 45.7136 15.1074L41.9756 16.1495L38.2377 15.1074C38.0887 15.0658 37.9308 15.0658 37.7818 15.1074L34.0437 16.1495L30.4126 15.1373C30.3148 15.0979 30.2079 15.0762 30.096 15.0762H30.0775C29.6531 15.0762 29.2939 15.3896 29.2364 15.8099C29.2227 15.9095 29.2272 16.0078 29.247 16.1013V19.7337L23.5833 36.1919C23.5528 36.2807 23.5371 36.3741 23.5371 36.4681V53.3989C23.5371 53.8678 23.9171 54.2477 24.386 54.2477C24.8548 54.2477 25.2348 53.8678 25.2348 53.3989V36.6101L30.702 20.7231H54.691C55.1598 20.7231 55.5398 20.3432 55.5398 19.8743C55.5398 19.4053 55.1598 19.0254 54.691 19.0254H30.9449V17.0481L33.8157 17.8483C33.9647 17.8899 34.1225 17.8899 34.2715 17.8483L38.0095 16.8063L41.7474 17.8483C41.8964 17.8899 42.0543 17.8899 42.2033 17.8483L45.9412 16.8063L49.6792 17.8483C49.8282 17.8899 49.986 17.8899 50.1351 17.8483L53.8731 16.8063L57.611 17.8483C57.7605 17.8899 57.9183 17.8899 58.0677 17.8481L60.9436 17.0438V19.0253H57.4731C57.0043 19.0253 56.6243 19.4052 56.6243 19.8741C56.6243 20.3431 57.0043 20.723 57.4731 20.723H60.6026L55.2792 36.1919C55.2487 36.2807 55.2331 36.3741 55.2331 36.4681V68.6228H25.2348V56.1812C25.2348 55.7122 24.8548 55.3323 24.386 55.3323C23.9171 55.3323 23.5371 55.7122 23.5371 56.1812V69.4716C23.5371 69.9405 23.9171 70.3204 24.386 70.3204H56.0823C56.11 70.3204 56.1377 70.3189 56.1653 70.3162C56.1787 70.3149 56.1916 70.3125 56.2048 70.3106C56.2186 70.3086 56.2325 70.307 56.2463 70.3043C56.2625 70.3011 56.2784 70.2968 56.2942 70.2927C56.3048 70.29 56.3153 70.2877 56.3258 70.2845C56.3426 70.2795 56.359 70.2734 56.3754 70.2674C56.383 70.2645 56.3909 70.2624 56.3985 70.2594L56.4115 70.2542C56.4121 70.254 56.4127 70.2538 56.4135 70.2534L67.8198 65.6764C68.1417 65.5471 68.3525 65.2352 68.3525 64.8885V36.468C68.3523 36.3741 68.3366 36.2807 68.3061 36.1919ZM66.6545 64.3144L56.9311 68.2162V36.6101L61.7927 22.4828L66.6544 36.61V64.3144H66.6545Z" fill="#EFEFEF"/>
<path d="M41.5027 50.0576L41.4639 50.0187C40.6622 49.2169 39.4254 48.7933 37.8874 48.7933C35.2725 48.7931 32.2934 50.0086 31.2469 51.5027C30.7969 52.1451 30.679 52.8566 30.9151 53.506C31.297 54.5565 32.049 55.4218 33.1501 56.0778C33.6155 56.355 34.0464 56.6918 34.4352 57.083C34.8222 57.4676 35.159 57.8986 35.4363 58.364C36.0925 59.4653 36.9578 60.2171 38.0081 60.599C38.2267 60.6785 38.4543 60.7188 38.6846 60.7188H38.6848C39.9085 60.7188 41.08 59.5851 41.8989 57.6083C42.9083 55.1718 43.2126 51.7673 41.5027 50.0576ZM40.1717 56.8926C39.5652 58.3565 38.8967 58.8492 38.6849 58.8491C38.6761 58.8491 38.6646 58.8482 38.6469 58.8417C38.012 58.6108 37.4723 58.1282 37.0424 57.4069C36.685 56.8069 36.2512 56.2517 35.7572 55.7607C35.2619 55.2624 34.7067 54.8287 34.107 54.4714C33.3859 54.0417 32.9031 53.5019 32.6722 52.867C32.643 52.7865 32.726 52.6497 32.7782 52.5752C33.3978 51.6908 35.7645 50.6626 37.8874 50.6626C38.904 50.6626 39.7048 50.9034 40.1469 51.3455L40.1736 51.3722C41.185 52.3837 40.9668 54.9733 40.1717 56.8926Z" fill="#EFEFEF"/>
<path d="M43.5471 39.6553C43.1041 39.4873 42.6409 39.4023 42.1704 39.4023C40.566 39.4023 39.1059 40.4105 38.537 41.9109C37.8264 43.7852 37.8821 47.9062 40.1002 48.7473C40.3507 48.8423 40.6196 48.8903 40.8992 48.8903H40.8993C43.0354 48.8903 45.259 46.0994 45.8025 44.6654C46.5622 42.6624 45.5504 40.415 43.5471 39.6553ZM44.0546 44.0026C43.6028 45.1944 41.8318 47.0208 40.8995 47.0207C40.8464 47.0207 40.8019 47.0136 40.7632 46.999C40.041 46.7251 39.7465 43.9955 40.2853 42.5738C40.5806 41.7951 41.3382 41.2721 42.1706 41.2721C42.414 41.2721 42.654 41.3163 42.8844 41.4037C43.9235 41.7976 44.4484 42.9635 44.0546 44.0026Z" fill="#EFEFEF"/>
<path d="M37.3016 43.2777C36.9767 41.6688 35.551 40.5011 33.9116 40.5011C33.6818 40.5011 33.4503 40.5244 33.2236 40.5701C32.3173 40.7531 31.5365 41.2781 31.0252 42.0483C30.5138 42.8187 30.3329 43.7418 30.516 44.6481C30.8284 46.1942 32.5887 49.0341 34.528 49.0343H34.5282C34.6621 49.0343 34.7955 49.021 34.9252 48.995C36.9966 48.5766 37.6506 45.0054 37.3016 43.2777ZM34.5552 47.1623C34.5471 47.164 34.5383 47.1648 34.5283 47.1648H34.5282C33.9016 47.1647 32.5776 45.4111 32.3487 44.278C32.2646 43.8612 32.3477 43.4368 32.5828 43.0825C32.8179 42.7284 33.1769 42.4869 33.5936 42.4028C33.6987 42.3815 33.8056 42.3707 33.9115 42.3707C34.6645 42.3707 35.3193 42.9078 35.4689 43.6477C35.7225 44.9029 35.0787 47.0566 34.5552 47.1623Z" fill="#EFEFEF"/>
<path d="M51.8425 47.9565C51.2737 46.4562 49.8134 45.4481 48.2092 45.4481C47.7386 45.4481 47.2755 45.5332 46.8325 45.7011C45.9023 46.0538 44.7543 46.8964 43.9081 47.8476C42.7752 49.1209 42.3643 50.3838 42.7508 51.4035C43.4204 53.1699 45.9761 53.3605 47.0437 53.3605C47.9999 53.3605 48.9269 53.2171 49.5871 52.9667C51.5902 52.2073 52.6019 49.9597 51.8425 47.9565ZM48.9243 51.2186C48.4811 51.3867 47.7606 51.4909 47.0437 51.4909C45.6289 51.4909 44.6388 51.1096 44.499 50.7407C44.4037 50.4892 44.6152 49.8656 45.3048 49.0904C46.0525 48.2501 46.9644 47.6507 47.4952 47.4494C47.7257 47.3622 47.9658 47.3177 48.2091 47.3177C49.0414 47.3177 49.7991 47.8407 50.0943 48.6193C50.4883 49.6586 49.9634 50.8246 48.9243 51.2186Z" fill="#EFEFEF"/>
<path d="M48.235 54.2098C47.9475 54.1517 47.6169 54.1223 47.2524 54.1223C45.5492 54.1223 42.8828 54.7786 42.5178 56.5863C42.3224 57.5532 42.862 58.6096 44.0371 59.5611C44.9 60.2598 46.0099 60.8229 46.8645 60.9955C47.0912 61.0413 47.3228 61.0646 47.5526 61.0646C49.1919 61.0646 50.6177 59.8969 50.9427 58.2881C51.3206 56.4171 50.106 54.5878 48.235 54.2098ZM49.11 57.9177C48.9605 58.6576 48.3055 59.1947 47.5525 59.1947C47.4466 59.1947 47.3397 59.184 47.2345 59.1627C46.7589 59.0665 45.9119 58.6735 45.2136 58.108C44.5275 57.5525 44.32 57.1069 44.3503 56.9565C44.4255 56.5845 45.784 55.992 47.2522 55.992C47.5518 55.992 47.7507 56.0196 47.8648 56.0425C48.7252 56.2163 49.2837 57.0575 49.11 57.9177Z" fill="#EFEFEF"/>
</svg>
