<svg width="127" height="127" viewBox="0 0 127 127" fill="none" xmlns="http://www.w3.org/2000/svg">
<circle cx="63.5" cy="63.5" r="63.5" fill="#E0FFED"/>
<path d="M97.02 51.1958L88.9198 27.6584V22.2141C88.9198 21.8343 88.742 21.4765 88.4396 21.2469C88.1372 21.0173 87.7449 20.9425 87.379 21.045L82.0519 22.5348L76.707 21.0448C76.494 20.9854 76.2682 20.9854 76.0551 21.0448L70.7097 22.535L65.3644 21.0448C65.1513 20.9854 64.9256 20.9854 64.7125 21.0448L59.3672 22.535L54.0219 21.0448C53.8089 20.9854 53.5831 20.9854 53.37 21.0448L48.0244 22.535L42.8321 21.0875C42.6921 21.0312 42.5392 21.0002 42.3792 21.0002H42.3528C41.746 21.0002 41.2323 21.4484 41.1501 22.0494C41.1305 22.1918 41.1368 22.3324 41.1652 22.4662V27.6604L33.066 51.1958C33.0224 51.3228 33 51.4565 33 51.5908V75.8019C33 76.4725 33.5434 77.0158 34.2138 77.0158C34.8843 77.0158 35.4277 76.4725 35.4277 75.8019V51.7939L43.2459 29.0753H77.5503C78.2207 29.0753 78.7641 28.532 78.7641 27.8615C78.7641 27.1909 78.2207 26.6476 77.5503 26.6476H43.5932V23.82L47.6984 24.9644C47.9115 25.0238 48.1372 25.0238 48.3503 24.9644L53.6956 23.4742L59.0409 24.9644C59.254 25.0238 59.4797 25.0238 59.6928 24.9644L65.0381 23.4742L70.3834 24.9644C70.5965 25.0238 70.8222 25.0238 71.0353 24.9644L76.3807 23.4742L81.726 24.9644C81.9397 25.0238 82.1654 25.0238 82.379 24.9641L86.4916 23.814V26.6475H81.5288C80.8584 26.6475 80.315 27.1907 80.315 27.8613C80.315 28.5319 80.8584 29.0752 81.5288 29.0752H86.004L78.3915 51.1958C78.3478 51.3228 78.3255 51.4565 78.3255 51.5908V97.5722H35.4277V79.7806C35.4277 79.1101 34.8843 78.5668 34.2138 78.5668C33.5434 78.5668 33 79.1101 33 79.7806V98.7861C33 99.4566 33.5434 99.9999 34.2138 99.9999H79.5399C79.5794 99.9999 79.6191 99.9978 79.6586 99.9939C79.6777 99.9921 79.6962 99.9885 79.7151 99.9859C79.7348 99.983 79.7547 99.9806 79.7745 99.9768C79.7976 99.9723 79.8203 99.9661 79.843 99.9603C79.8581 99.9564 79.8731 99.9532 79.888 99.9485C79.9121 99.9414 79.9355 99.9326 79.959 99.924C79.97 99.92 79.9812 99.9169 79.992 99.9126L80.0107 99.9052C80.0115 99.9049 80.0124 99.9046 80.0135 99.9041L96.3246 93.3589C96.7849 93.174 97.0863 92.7279 97.0863 92.2322V51.5907C97.086 51.4565 97.0637 51.3228 97.02 51.1958ZM94.6582 91.4112L80.7536 96.9908V51.7939L87.7057 31.5917L94.658 51.7937V91.4112H94.6582Z" fill="#236D41"/>
<path d="M97.02 51.1958L88.9198 27.6584V22.2141C88.9198 21.8343 88.742 21.4765 88.4396 21.2469C88.1372 21.0173 87.7449 20.9425 87.379 21.045L82.0519 22.5348L76.707 21.0448C76.494 20.9854 76.2682 20.9854 76.0551 21.0448L70.7097 22.535L65.3644 21.0448C65.1513 20.9854 64.9256 20.9854 64.7125 21.0448L59.3672 22.535L54.0219 21.0448C53.8089 20.9854 53.5831 20.9854 53.37 21.0448L48.0244 22.535L42.8321 21.0875C42.6921 21.0312 42.5392 21.0002 42.3792 21.0002H42.3528C41.746 21.0002 41.2323 21.4484 41.1501 22.0494C41.1305 22.1918 41.1368 22.3324 41.1652 22.4662V27.6604L33.066 51.1958C33.0224 51.3228 33 51.4565 33 51.5908V75.8019C33 76.4725 33.5434 77.0158 34.2138 77.0158C34.8843 77.0158 35.4277 76.4725 35.4277 75.8019V51.7939L43.2459 29.0753H77.5503C78.2207 29.0753 78.7641 28.532 78.7641 27.8615C78.7641 27.1909 78.2207 26.6476 77.5503 26.6476H43.5932V23.82L47.6984 24.9644C47.9115 25.0238 48.1372 25.0238 48.3503 24.9644L53.6956 23.4742L59.0409 24.9644C59.254 25.0238 59.4797 25.0238 59.6928 24.9644L65.0381 23.4742L70.3834 24.9644C70.5965 25.0238 70.8222 25.0238 71.0353 24.9644L76.3807 23.4742L81.726 24.9644C81.9397 25.0238 82.1654 25.0238 82.379 24.9641L86.4916 23.814V26.6475H81.5288C80.8584 26.6475 80.315 27.1907 80.315 27.8613C80.315 28.5319 80.8584 29.0752 81.5288 29.0752H86.004L78.3915 51.1958C78.3478 51.3228 78.3255 51.4565 78.3255 51.5908V97.5722H35.4277V79.7806C35.4277 79.1101 34.8843 78.5668 34.2138 78.5668C33.5434 78.5668 33 79.1101 33 79.7806V98.7861C33 99.4566 33.5434 99.9999 34.2138 99.9999H79.5399C79.5794 99.9999 79.6191 99.9978 79.6586 99.9939C79.6777 99.9921 79.6962 99.9885 79.7151 99.9859C79.7348 99.983 79.7547 99.9806 79.7745 99.9768C79.7976 99.9723 79.8203 99.9661 79.843 99.9603C79.8581 99.9564 79.8731 99.9532 79.888 99.9485C79.9121 99.9414 79.9355 99.9326 79.959 99.924C79.97 99.92 79.9812 99.9169 79.992 99.9126L80.0107 99.9052C80.0115 99.9049 80.0124 99.9046 80.0135 99.9041L96.3246 93.3589C96.7849 93.174 97.0863 92.7279 97.0863 92.2322V51.5907C97.086 51.4565 97.0637 51.3228 97.02 51.1958ZM94.6582 91.4112L80.7536 96.9908V51.7939L87.7057 31.5917L94.658 51.7937V91.4112H94.6582Z" fill="#236D41"/>
<path d="M58.6971 71.0209L58.6416 70.9651C57.4951 69.8187 55.7266 69.2129 53.5271 69.2129C49.7878 69.2126 45.5277 70.9507 44.0312 73.0873C43.3877 74.0059 43.2192 75.0234 43.5568 75.952C44.1029 77.4543 45.1782 78.6916 46.7529 79.6298C47.4183 80.0262 48.0346 80.5077 48.5906 81.0671C49.144 81.6172 49.6255 82.2335 50.0221 82.8991C50.9605 84.4739 52.1978 85.549 53.6998 86.0951C54.0124 86.2088 54.3378 86.2664 54.6671 86.2664H54.6675C56.4173 86.2664 58.0926 84.6452 59.2637 81.8184C60.7071 78.3341 61.1423 73.4657 58.6971 71.0209ZM56.7937 80.7949C55.9264 82.8883 54.9704 83.5928 54.6676 83.5927C54.6551 83.5927 54.6386 83.5915 54.6133 83.5821C53.7054 83.252 52.9336 82.5618 52.3188 81.5303C51.8077 80.6724 51.1875 79.8784 50.4809 79.1762C49.7727 78.4638 48.9788 77.8435 48.1212 77.3326C47.09 76.7182 46.3996 75.9462 46.0694 75.0383C46.0276 74.9231 46.1464 74.7275 46.221 74.621C47.107 73.3563 50.4915 71.8859 53.5271 71.8859C54.981 71.8859 56.1261 72.2304 56.7583 72.8625L56.7964 72.9007C58.2428 74.3471 57.9308 78.0503 56.7937 80.7949Z" fill="#236D41"/>
<path d="M61.6338 56.1496C61.0003 55.9093 60.338 55.7878 59.6651 55.7878C57.3708 55.7878 55.2828 57.2295 54.4694 59.3751C53.4531 62.0554 53.5328 67.9484 56.7047 69.1512C57.0629 69.2871 57.4474 69.3557 57.8473 69.3557H57.8474C60.9021 69.3557 64.0818 65.3646 64.8591 63.314C65.9454 60.4498 64.4985 57.2359 61.6338 56.1496ZM62.3595 62.3662C61.7135 64.0705 59.181 66.6824 57.8478 66.6822C57.7718 66.6822 57.7081 66.672 57.6529 66.6511C56.6201 66.2594 56.1988 62.3562 56.9694 60.323C57.3917 59.2095 58.4751 58.4616 59.6654 58.4616C60.0134 58.4616 60.3567 58.5248 60.6861 58.6498C62.1721 59.2131 62.9226 60.8804 62.3595 62.3662Z" fill="#236D41"/>
<path d="M52.6936 61.328C52.229 59.0272 50.1903 57.3574 47.8459 57.3574C47.5173 57.3574 47.1862 57.3907 46.862 57.4561C45.566 57.7178 44.4495 58.4685 43.7183 59.57C42.987 60.6716 42.7284 61.9917 42.9902 63.2877C43.4369 65.4985 45.9541 69.5597 48.7273 69.56H48.7276C48.9191 69.56 49.1099 69.541 49.2953 69.5038C52.2574 68.9055 53.1926 63.7986 52.6936 61.328ZM48.7662 66.8831C48.7546 66.8854 48.742 66.8866 48.7278 66.8866H48.7276C47.8316 66.8865 45.9382 64.3788 45.6109 62.7584C45.4906 62.1625 45.6095 61.5555 45.9456 61.0488C46.2819 60.5424 46.7953 60.1972 47.3912 60.0768C47.5414 60.0464 47.6943 60.031 47.8457 60.031C48.9225 60.031 49.8589 60.799 50.0729 61.8571C50.4355 63.652 49.5148 66.7318 48.7662 66.8831Z" fill="#236D41"/>
<path d="M73.5006 68.0192C72.6872 65.8737 70.599 64.4321 68.3049 64.4321C67.632 64.4321 66.9697 64.5538 66.3362 64.7939C65.006 65.2982 63.3644 66.5031 62.1543 67.8634C60.5342 69.6842 59.9466 71.4902 60.4994 72.9484C61.4569 75.4743 65.1116 75.7469 66.6383 75.7469C68.0057 75.7469 69.3312 75.5418 70.2753 75.1837C73.1398 74.0978 74.5866 70.8837 73.5006 68.0192ZM69.3275 72.684C68.6937 72.9243 67.6634 73.0733 66.6383 73.0733C64.6151 73.0733 63.1993 72.528 62.9993 72.0006C62.863 71.6409 63.1655 70.7491 64.1517 69.6406C65.2208 68.4391 66.5248 67.5818 67.2838 67.2939C67.6135 67.1692 67.9569 67.1057 68.3047 67.1057C69.495 67.1057 70.5785 67.8535 71.0007 68.967C71.564 70.4531 70.8135 72.1206 69.3275 72.684Z" fill="#236D41"/>
<path d="M68.3255 76.9595C67.9143 76.8764 67.4416 76.8345 66.9203 76.8345C64.4848 76.8345 60.6718 77.7729 60.1498 80.358C59.8704 81.7406 60.642 83.2514 62.3224 84.612C63.5564 85.6111 65.1436 86.4163 66.3657 86.6632C66.6899 86.7287 67.0211 86.762 67.3497 86.762C69.6939 86.762 71.7328 85.0921 72.1976 82.7916C72.7379 80.116 71.001 77.5001 68.3255 76.9595ZM69.5767 82.2619C69.3629 83.32 68.4263 84.0881 67.3495 84.0881C67.1981 84.0881 67.0452 84.0728 66.8948 84.0422C66.2146 83.9047 65.0034 83.3426 64.0048 82.534C63.0237 81.7396 62.727 81.1024 62.7703 80.8874C62.8779 80.3554 64.8206 79.5082 66.9201 79.5082C67.3485 79.5082 67.633 79.5476 67.7961 79.5804C69.0265 79.8288 69.8251 81.0319 69.5767 82.2619Z" fill="#236D41"/>
</svg>
