<svg width="90" height="90" viewBox="0 0 90 90" fill="none" xmlns="http://www.w3.org/2000/svg">
<circle cx="45.2629" cy="44.941" r="44.4053" fill="#3C67A7"/>
<path d="M54.0548 24.833L55.0262 22.9126C55.6782 23.2462 56.3138 23.61 56.932 24.0024L56.9324 24.0015C59.9917 25.9373 62.6263 28.5872 64.5516 31.6647L64.5507 31.6652C64.9406 32.2867 65.3025 32.9265 65.6341 33.582L63.7249 34.5592C61.6218 30.402 58.1874 26.9479 54.0548 24.833ZM24.4368 54.6225L22.5275 55.5995C22.8592 56.2552 23.2208 56.8945 23.611 57.5163L23.6102 57.5169C25.5348 60.5938 28.1695 63.2437 31.2294 65.1801L31.2298 65.1792C31.8478 65.5713 32.4839 65.9353 33.1356 66.269L34.1071 64.3486C29.9738 62.2331 26.5395 58.7789 24.4368 54.6225ZM74.2754 59.0208L73.5998 61.0656C66.7433 58.7736 66.66 53.3571 66.5865 48.5783C66.5267 44.6937 66.4741 41.254 63.2881 39.191C63.7677 40.9271 64.0154 42.7397 64.0154 44.5909C64.0154 49.9463 61.9418 54.9815 58.1766 58.7684C54.2903 62.677 49.1855 64.6314 44.0808 64.6314C41.9221 64.6314 39.7632 64.2818 37.6967 63.5829C37.6329 63.5646 37.5694 63.5448 37.5067 63.5236L37.5085 63.5181C34.7619 62.5581 32.1827 60.9767 29.9915 58.7751C29.9891 58.7727 29.987 58.7705 29.9847 58.7682C29.9823 58.7658 29.9802 58.7637 29.9779 58.7614C26.2172 54.9755 24.146 49.9431 24.146 44.5909C24.146 39.2353 26.2196 34.2003 29.985 30.4134C33.7501 26.6263 38.7561 24.5408 44.0809 24.5408C49.4057 24.5408 54.4116 26.6263 58.1767 30.4134C59.8936 32.1402 61.2588 34.1266 62.236 36.2845C68.5762 38.6439 68.657 43.8973 68.7286 48.545C68.8001 53.1952 68.8619 57.2113 74.2754 59.0208ZM26.7057 43.024C28.2536 40.0257 30.6105 36.8932 33.5217 33.9652C36.7543 30.7138 40.2107 28.1893 43.2982 26.7122C38.8392 26.9049 34.6752 28.7429 31.4996 31.9368C28.3154 35.1393 26.4867 39.3418 26.3035 43.8403C26.4365 43.5569 26.5715 43.2837 26.7057 43.024ZM30.0554 50.0023C31.6611 46.3797 34.5573 42.361 38.2107 38.6867C41.8639 35.0123 45.8594 32.0994 49.4611 30.4843C50.8482 29.8625 52.1325 29.4574 53.288 29.2697C52.0029 28.4852 50.6272 27.8714 49.19 27.4404C46.5292 27.0402 40.8164 29.6755 35.0364 35.489C28.9538 41.6068 26.4294 47.5744 27.1422 50.0833L27.138 50.0845C27.5588 51.4018 28.1317 52.665 28.8477 53.8515C29.0343 52.6889 29.437 51.3976 30.0554 50.0023ZM34.9288 57.7129C35.8096 53.622 39.2778 48.3378 43.542 44.0488C47.8053 39.7609 53.059 36.2738 57.1269 35.3888C57.4563 33.8052 57.3069 32.5855 56.662 31.9369C56.2378 31.5102 55.5674 31.2992 54.71 31.2992C53.5468 31.2992 52.0391 31.6875 50.3335 32.4522C46.9653 33.9625 43.1979 36.7177 39.7255 40.2104C36.253 43.7029 33.5137 47.492 32.0121 50.8798C30.6913 53.8596 30.4997 56.2391 31.4998 57.2449C32.1441 57.8929 33.3558 58.0431 34.9288 57.7129ZM54.8523 38.4335C51.7461 39.8333 48.1757 42.4355 45.0567 45.5725C41.937 48.7102 39.3491 52.301 37.9562 55.4241C37.7223 55.9488 37.5251 56.4522 37.365 56.93C37.5177 56.8664 37.6722 56.7995 37.8282 56.7295C41.1964 55.2192 44.9637 52.464 48.4362 48.9714C51.9087 45.4788 54.648 41.6898 56.1497 38.302C56.2186 38.1465 56.2845 37.9924 56.3474 37.8404C55.873 38.0009 55.373 38.1989 54.8523 38.4335ZM52.8744 53.4354C55.6492 50.6445 57.9782 47.5667 59.4322 44.7687C60.77 42.1943 61.299 39.9793 60.8834 38.6917L60.8881 38.6902C60.7787 38.3744 60.6605 38.0618 60.5337 37.7529C60.142 37.4442 59.5567 37.3048 58.8208 37.3281C58.628 37.9217 58.3898 38.5396 58.1063 39.1794C56.5005 42.802 53.6042 46.8205 49.951 50.4949C46.2978 54.1693 42.3023 57.0822 38.7006 58.6973C38.0631 58.9831 37.4471 59.2232 36.8557 59.4174C36.832 60.1467 36.9675 60.7284 37.2658 61.1216C37.6149 61.2665 37.9678 61.4001 38.3238 61.5219C40.8719 62.2097 46.9263 59.418 52.8744 53.4354ZM61.8732 44.6532C61.6963 45.0432 61.5129 45.4164 61.3308 45.7667C59.7789 48.7531 57.3138 52.0178 54.3892 54.9591C51.4564 57.9089 48.1996 60.3927 45.2186 61.953C44.8821 62.1292 44.5243 62.3065 44.1511 62.4779C48.684 62.4601 53.2111 60.7158 56.662 57.2449C60.008 53.8795 61.8572 49.4101 61.8732 44.6532Z" fill="#EFEFEF"/>
</svg>
