<svg width="31" height="32" viewBox="0 0 31 32" fill="none" xmlns="http://www.w3.org/2000/svg">
<path d="M31 16C31 19.0656 30.0909 22.0624 28.3878 24.6113C26.6846 27.1603 24.2638 29.147 21.4316 30.3201C18.5993 31.4933 15.4828 31.8002 12.4761 31.2022C9.4694 30.6041 6.70756 29.1279 4.53985 26.9601C2.37214 24.7924 0.895906 22.0306 0.297835 19.0239C-0.300236 16.0172 0.0067159 12.9007 1.17987 10.0684C2.35303 7.23615 4.33971 4.81538 6.88867 3.11222C9.43763 1.40906 12.4344 0.5 15.5 0.5C17.5356 0.499743 19.5512 0.900487 21.4319 1.67934C23.3126 2.4582 25.0214 3.59991 26.4607 5.03927C27.9001 6.47863 29.0418 8.18744 29.8207 10.0681C30.5995 11.9488 31.0003 13.9644 31 16ZM22.9632 7.19376C22.7869 7.09166 22.5922 7.02536 22.3902 6.99864C22.1882 6.97192 21.983 6.98532 21.7862 7.03806C21.5894 7.0908 21.405 7.18185 21.2434 7.306C21.0819 7.43014 20.9464 7.58494 20.8448 7.76152L13.3503 20.7418L9.95744 16.6696C9.82709 16.5132 9.66722 16.3841 9.48697 16.2896C9.30672 16.1951 9.10962 16.137 8.90691 16.1186C8.7042 16.1002 8.49987 16.122 8.30556 16.1826C8.11126 16.2432 7.9308 16.3415 7.77448 16.4718C7.61816 16.6022 7.48905 16.762 7.39451 16.9423C7.29997 17.1225 7.24186 17.3196 7.2235 17.5224C7.18642 17.9317 7.31348 18.3391 7.57674 18.6548L12.391 24.4342C12.5364 24.6088 12.7184 24.7492 12.9241 24.8456C13.1298 24.9421 13.3542 24.9921 13.5813 24.9922C13.6258 24.9921 13.6702 24.9901 13.7145 24.9864C13.9632 24.9651 14.2032 24.8841 14.4139 24.7501C14.6245 24.6161 14.7997 24.4332 14.9244 24.2169L23.527 9.31015C23.6288 9.13394 23.6949 8.93938 23.7214 8.73762C23.748 8.53586 23.7345 8.33084 23.6818 8.13428C23.6291 7.93773 23.5381 7.75349 23.4141 7.59211C23.2902 7.43073 23.1356 7.29537 22.9593 7.19376H22.9632Z" fill="#DA7339"/>
</svg>
