<svg width="33" height="32" viewBox="0 0 33 32" fill="none" xmlns="http://www.w3.org/2000/svg">
    <g clip-path="url(#clip0_1233_2433)">
        <path d="M16.2617 0C7.56112 0 0.507812 7.05331 0.507812 15.7538C0.507812 23.1418 5.59441 29.3412 12.4562 31.0439V20.5682H9.20772V15.7538H12.4562V13.6794C12.4562 8.3174 14.8829 5.83207 20.1472 5.83207C21.1454 5.83207 22.8676 6.02805 23.5721 6.2234V10.5872C23.2003 10.5481 22.5544 10.5286 21.7522 10.5286C19.1692 10.5286 18.171 11.5072 18.171 14.0512V15.7538H23.3169L22.4328 20.5682H18.171V31.3924C25.9717 30.4503 32.0161 23.8085 32.0161 15.7538C32.0155 7.05331 24.9622 0 16.2617 0Z" fill="#A7A7A7"/>
    </g>
    <defs>
        <clipPath id="clip0_1233_2433">
            <rect width="31.5077" height="31.5077" fill="white" transform="translate(0.507812)"/>
        </clipPath>
    </defs>
</svg>
