<svg width="32" height="32" viewBox="0 0 32 32" fill="none" xmlns="http://www.w3.org/2000/svg">
    <g clip-path="url(#clip0_1236_2604)">
        <path d="M15.7695 12.8894V18.9905H24.2479C23.8756 20.9525 22.7584 22.6139 21.0828 23.731L26.1956 27.6981C29.1745 24.9484 30.8931 20.9097 30.8931 16.1119C30.8931 14.9949 30.7929 13.9206 30.6067 12.8896L15.7695 12.8894Z" fill="#A7A7A7"/>
        <path d="M6.94191 18.7523L5.78878 19.635L1.70703 22.8144C4.29925 27.9558 9.6122 31.5077 15.7705 31.5077C20.0239 31.5077 23.59 30.1041 26.1966 27.6981L21.0837 23.731C19.6802 24.6762 17.89 25.2492 15.7705 25.2492C11.6745 25.2492 8.19443 22.4851 6.94835 18.7614L6.94191 18.7523Z" fill="#A7A7A7"/>
        <path d="M1.70546 8.69324C0.631393 10.8128 0.015625 13.2045 0.015625 15.7537C0.015625 18.3029 0.631393 20.6947 1.70546 22.8142C1.70546 22.8285 6.94728 18.7469 6.94728 18.7469C6.63221 17.8016 6.44598 16.7992 6.44598 15.7536C6.44598 14.7079 6.63221 13.7055 6.94728 12.7603L1.70546 8.69324Z" fill="#A7A7A7"/>
        <path d="M15.7708 6.27289C18.0909 6.27289 20.1532 7.07488 21.8002 8.62165L26.3115 4.11037C23.5761 1.56116 20.0244 0 15.7708 0C9.61252 0 4.29925 3.53745 1.70703 8.69327L6.94869 12.7606C8.19461 9.03695 11.6748 6.27289 15.7708 6.27289Z" fill="#A7A7A7"/>
    </g>
    <defs>
        <clipPath id="clip0_1236_2604">
            <rect width="31.5077" height="31.5077" fill="white" transform="translate(0.015625)"/>
        </clipPath>
    </defs>
</svg>
